<svg version="1.1" xmlns="http://www.w3.org/2000/svg" viewBox="0 0 1207.157568993506 675.3162337662335" width="1207.157568993506" height="675.3162337662335" class="excalidraw-svg">
  <!-- svg-source:excalidraw -->
  
  <defs>
    <style class="style-fonts">
      @font-face {
        font-family: "Virgil";
        src: url("https://excalidraw.com/Virgil.woff2");
      }
      @font-face {
        font-family: "Cascadia";
        src: url("https://excalidraw.com/Cascadia.woff2");
      }
      @font-face {
        font-family: "Assistant";
        src: url("https://excalidraw.com/Assistant-Regular.woff2");
      }
    </style>
    
  </defs>
  <rect x="0" y="0" width="1207.157568993506" height="675.3162337662335" fill="#ffffff"/><g stroke-linecap="round" transform="translate(10 10) rotate(0 206.14016842532465 303.63534902597405)"><path d="M7.86 8.16 C7.86 8.16, 7.86 8.16, 7.86 8.16 M7.86 8.16 C7.86 8.16, 7.86 8.16, 7.86 8.16 M3.66 19.09 C6.55 15.48, 13.59 6.61, 18.1 2.48 M3.66 19.09 C8.2 13.3, 14.85 6.28, 18.1 2.48 M2.75 26.24 C11.26 17.53, 17.29 8.55, 24.4 1.33 M2.75 26.24 C7 20.12, 13.07 14.39, 24.4 1.33 M1.83 33.39 C7.04 25.25, 15.21 17.74, 30.7 0.18 M1.83 33.39 C10.74 24.25, 18.26 13.4, 30.7 0.18 M1.57 39.79 C6.93 29.91, 16.89 22.22, 34.37 2.05 M1.57 39.79 C11.52 28.94, 20.37 17.38, 34.37 2.05 M1.96 45.43 C13.38 36.88, 20.51 22.73, 39.36 2.41 M1.96 45.43 C17.05 28.38, 32.38 11.45, 39.36 2.41 M1.7 51.83 C12.57 38.4, 25.99 22.14, 45 2.02 M1.7 51.83 C17.84 34.38, 33.21 16.93, 45 2.02 M1.44 58.23 C20.65 35.21, 36.29 15.13, 49.99 2.38 M1.44 58.23 C20.8 35.9, 38.9 14.74, 49.99 2.38 M1.83 63.87 C18.29 45.4, 32.21 27.51, 55.63 1.98 M1.83 63.87 C19.99 42.76, 37.22 21.81, 55.63 1.98 M1.57 70.27 C14.71 58.67, 26.71 43.43, 60.62 2.34 M1.57 70.27 C17.36 52.5, 34.91 33.4, 60.62 2.34 M1.97 75.91 C16.54 57.21, 35.81 38.41, 66.26 1.95 M1.97 75.91 C23.49 49.2, 47.46 24.06, 66.26 1.95 M1.71 82.31 C20.7 62.53, 35.65 41.44, 71.25 2.31 M1.71 82.31 C29.79 49.72, 57.32 17.26, 71.25 2.31 M1.44 88.71 C26.41 62.5, 48.39 34.72, 76.89 1.91 M1.44 88.71 C24.15 63.94, 43.64 40.75, 76.89 1.91 M1.84 94.35 C22.31 70.87, 40.44 47.21, 81.88 2.27 M1.84 94.35 C31.88 60.14, 63.37 24.16, 81.88 2.27 M1.58 100.75 C24.88 76.2, 49.11 48.5, 87.52 1.88 M1.58 100.75 C35.3 61.86, 67.51 24.76, 87.52 1.88 M1.97 106.39 C19.95 85.71, 40.13 65.29, 92.51 2.24 M1.97 106.39 C22.98 82, 44.99 57.86, 92.51 2.24 M1.71 112.79 C32.92 79.28, 61.05 41.83, 98.15 1.85 M1.71 112.79 C26.7 87.19, 49.02 58.55, 98.15 1.85 M1.45 119.19 C37.06 76.17, 76.18 32.58, 103.14 2.21 M1.45 119.19 C22.22 94.06, 44.2 68.25, 103.14 2.21 M1.84 124.83 C27.52 92.88, 54.64 62.13, 108.78 1.81 M1.84 124.83 C30.5 89.96, 61.97 56.5, 108.78 1.81 M1.58 131.23 C30.71 96.46, 60.55 60.49, 113.77 2.17 M1.58 131.23 C38.55 87.27, 77 43.64, 113.77 2.17 M1.98 136.87 C33.84 98.48, 64.17 64.2, 119.41 1.78 M1.98 136.87 C26.11 108.55, 51.76 78.38, 119.41 1.78 M1.72 143.27 C33.28 108.05, 65.74 70.36, 124.4 2.14 M1.72 143.27 C39.46 100.79, 78.13 56.16, 124.4 2.14 M1.45 149.67 C28.24 114.68, 60.21 84.32, 130.04 1.74 M1.45 149.67 C50.03 93.42, 100.03 36.8, 130.04 1.74 M1.85 155.31 C54.17 96.69, 105.96 35.03, 135.03 2.1 M1.85 155.31 C53.13 95.03, 105.1 35.7, 135.03 2.1 M1.59 161.71 C45.02 113.27, 86.73 66.02, 140.67 1.71 M1.59 161.71 C34.87 121.45, 69.36 82.22, 140.67 1.71 M1.98 167.35 C52.88 111.49, 100.71 54.86, 145.66 2.07 M1.98 167.35 C45.31 115.11, 88.99 64.91, 145.66 2.07 M1.72 173.75 C54.85 115.55, 106.78 54.57, 150.65 2.43 M1.72 173.75 C43.9 123.88, 87.68 75.29, 150.65 2.43 M1.46 180.14 C44.5 128.64, 89.57 79.28, 156.29 2.03 M1.46 180.14 C55.76 117.38, 112.25 54.26, 156.29 2.03 M1.85 185.79 C32.86 146.82, 67.67 107.79, 161.28 2.39 M1.85 185.79 C46.2 132.36, 92.25 79.55, 161.28 2.39 M1.59 192.19 C69.19 113.97, 132.72 40.68, 166.92 2 M1.59 192.19 C50.17 134.82, 101.74 76.9, 166.92 2 M1.99 197.83 C57.65 133.19, 114.67 68.28, 171.91 2.36 M1.99 197.83 C46.5 148.65, 90.41 97.09, 171.91 2.36 M1.72 204.23 C65.1 130.99, 130.88 55.24, 177.55 1.96 M1.72 204.23 C50.48 147.27, 98.97 91.37, 177.55 1.96 M1.46 210.62 C63.52 138.35, 128.08 63.64, 182.54 2.32 M1.46 210.62 C63.26 141.8, 122.88 72.35, 182.54 2.32 M1.86 216.27 C56.61 154.58, 111.63 90.31, 188.18 1.93 M1.86 216.27 C54.84 157.74, 106.49 95.82, 188.18 1.93 M1.6 222.66 C71.57 142.88, 140.44 62.03, 193.17 2.29 M1.6 222.66 C49.09 167.18, 97.26 112.05, 193.17 2.29 M1.99 228.31 C75.29 145.22, 148.89 59.15, 198.81 1.9 M1.99 228.31 C56.94 165.15, 111.98 103.06, 198.81 1.9 M1.73 234.71 C41.16 189.65, 81.87 141.16, 203.8 2.26 M1.73 234.71 C58.4 170.38, 113.76 105.34, 203.8 2.26 M1.47 241.1 C51.33 185.32, 98.59 130.56, 209.44 1.86 M1.47 241.1 C63.05 170.17, 123.81 99.71, 209.44 1.86 M1.86 246.75 C82.58 152.06, 164.24 58.3, 214.43 2.22 M1.86 246.75 C61.81 175.73, 121.01 107.32, 214.43 2.22 M1.6 253.14 C85.96 157.82, 169.37 62.13, 220.07 1.83 M1.6 253.14 C74.46 167.06, 147.49 82.68, 220.07 1.83 M2 258.79 C82.23 166.1, 164.88 72.94, 225.06 2.19 M2 258.79 C61.17 189.74, 122.16 120.03, 225.06 2.19 M1.73 265.19 C81.84 173.37, 161.93 79.56, 230.7 1.79 M1.73 265.19 C63.23 193.52, 124.6 121.39, 230.7 1.79 M1.47 271.58 C63.99 199.78, 122.7 130.46, 235.69 2.15 M1.47 271.58 C60.25 203.46, 120.45 135.59, 235.69 2.15 M1.87 277.23 C91.67 172.73, 182.6 68.41, 241.33 1.76 M1.87 277.23 C79.28 188.05, 157.83 97.18, 241.33 1.76 M1.61 283.62 C89.89 182.78, 176.72 82.51, 246.32 2.12 M1.61 283.62 C89.99 182.07, 177.59 82.06, 246.32 2.12 M2 289.27 C78.35 202.91, 155.16 115.94, 251.96 1.72 M2 289.27 C54.35 228.66, 107.99 167.79, 251.96 1.72 M1.74 295.66 C96.3 185.16, 194.11 73.08, 256.95 2.08 M1.74 295.66 C87.64 196.42, 173.26 99.11, 256.95 2.08 M1.48 302.06 C74.01 219.83, 147.23 135.57, 262.59 1.69 M1.48 302.06 C104.52 184.98, 206.36 67.4, 262.59 1.69 M1.87 307.71 C63.93 238.32, 125.51 166.75, 267.58 2.05 M1.87 307.71 C65.05 233.11, 129.97 158, 267.58 2.05 M1.61 314.1 C75.09 230.87, 149.46 147.35, 272.56 2.41 M1.61 314.1 C108.7 189.98, 217.33 66.57, 272.56 2.41 M2.01 319.75 C72.57 240.57, 143.06 158.77, 278.21 2.01 M2.01 319.75 C103.74 202.24, 205.95 83.85, 278.21 2.01 M1.74 326.14 C96.12 217.4, 189.64 108.31, 283.19 2.37 M1.74 326.14 C96.56 217.05, 192.8 106.86, 283.19 2.37 M1.48 332.54 C104.05 214.22, 207.46 96.17, 288.84 1.98 M1.48 332.54 C91.94 227.86, 183.01 123.89, 288.84 1.98 M1.88 338.19 C104.12 219, 207.63 99.57, 293.82 2.34 M1.88 338.19 C113.04 209.29, 225.96 80.06, 293.82 2.34 M1.62 344.58 C94.31 236, 189.17 127.78, 299.47 1.94 M1.62 344.58 C87 244.28, 172.71 144.17, 299.47 1.94 M2.01 350.23 C94.77 242.49, 189.21 135.09, 304.45 2.3 M2.01 350.23 C83.59 256.21, 165.62 162.38, 304.45 2.3 M1.75 356.62 C77.15 270.11, 154 181.55, 310.1 1.91 M1.75 356.62 C74.06 275.41, 144.84 193.45, 310.1 1.91 M1.49 363.02 C123.21 221.6, 245.27 81.11, 315.08 2.27 M1.49 363.02 C127.25 220.06, 252.11 76.26, 315.08 2.27 M1.88 368.66 C107.77 246.15, 213.42 124.6, 320.73 1.88 M1.88 368.66 C93.24 264.24, 184.22 159.64, 320.73 1.88 M1.62 375.06 C96.44 265.67, 192.38 155.81, 325.71 2.24 M1.62 375.06 C114.26 247.62, 226.09 118.46, 325.71 2.24 M2.02 380.71 C105.1 262.52, 208.49 144.05, 331.36 1.84 M2.02 380.71 C110.85 257.02, 218.51 133.45, 331.36 1.84 M1.75 387.1 C113.48 258.73, 223.75 131.51, 336.34 2.2 M1.75 387.1 C116.39 253.42, 231.77 120.41, 336.34 2.2 M1.49 393.5 C132.61 241.93, 263.31 89.67, 341.99 1.81 M1.49 393.5 C79.62 301.65, 159.51 209.51, 341.99 1.81 M1.89 399.14 C109.34 275.91, 216.87 153.64, 346.97 2.17 M1.89 399.14 C73.2 317.79, 144.8 236.66, 346.97 2.17 M1.63 405.54 C110.28 280.96, 219.62 155.68, 352.62 1.77 M1.63 405.54 C77.43 320.79, 152.21 235.49, 352.62 1.77 M2.02 411.18 C92.22 304.22, 183.97 198.36, 357.6 2.13 M2.02 411.18 C72.83 329.52, 143.97 247.19, 357.6 2.13 M1.76 417.58 C107.19 293.34, 213.3 172.24, 363.25 1.74 M1.76 417.58 C104.37 301.51, 205.11 185.24, 363.25 1.74 M1.5 423.98 C112.37 297.86, 223.61 169.86, 368.23 2.1 M1.5 423.98 C138.02 267.73, 273.74 111.85, 368.23 2.1 M1.89 429.62 C117.19 295.02, 232.04 163.29, 373.88 1.7 M1.89 429.62 C138.9 269.36, 277.82 110.02, 373.88 1.7 M1.63 436.02 C146.35 272.81, 289.23 107.61, 380.18 0.55 M1.63 436.02 C85.48 338.99, 168.86 242.84, 380.18 0.55 M2.02 441.66 C150.13 269.55, 299.47 98.83, 385.16 0.91 M2.02 441.66 C97.34 333.78, 191.2 226.09, 385.16 0.91 M1.76 448.06 C132.57 299.44, 263.27 150.66, 390.15 1.27 M1.76 448.06 C90.52 347.24, 179.37 245.41, 390.15 1.27 M1.5 454.46 C126.19 312.32, 250.18 171.17, 394.48 2.39 M1.5 454.46 C147.92 287.82, 291.86 121.21, 394.48 2.39 M1.9 460.1 C90.36 357.95, 177.66 258.08, 398.16 4.26 M1.9 460.1 C135.16 306.9, 267.56 154.68, 398.16 4.26 M1.64 466.5 C136.42 313.32, 269.44 160.95, 401.83 6.13 M1.64 466.5 C91.4 362.54, 182.99 256.84, 401.83 6.13 M2.03 472.14 C84.3 377.69, 165.72 284.54, 404.85 8.75 M2.03 472.14 C102.17 358.38, 201.16 244.74, 404.85 8.75 M1.77 478.54 C100.94 363.98, 200.4 248.76, 407.21 12.13 M1.77 478.54 C96.75 370.7, 191.14 262.33, 407.21 12.13 M1.51 484.94 C99.23 369.86, 198.86 256.79, 410.23 14.76 M1.51 484.94 C141.61 324.49, 281.23 163.74, 410.23 14.76 M1.9 490.58 C130.79 343.43, 257.98 196.1, 411.94 18.89 M1.9 490.58 C83.64 396.73, 166.9 301.51, 411.94 18.89 M1.64 496.98 C93.23 391.85, 185.21 287.14, 412.33 24.53 M1.64 496.98 C150.71 322.59, 301.18 149.91, 412.33 24.53 M2.03 502.62 C146.19 336.35, 293.15 168.58, 413.38 29.42 M2.03 502.62 C116.16 370.12, 230.15 239.27, 413.38 29.42 M1.77 509.02 C94.82 404.25, 186.55 299.7, 414.43 34.31 M1.77 509.02 C135.9 353.57, 271.05 198.75, 414.43 34.31 M1.51 515.42 C103.64 400.3, 204.65 284.77, 414.83 39.95 M1.51 515.42 C90.27 412.72, 178.4 311.37, 414.83 39.95 M1.91 521.06 C102 408.98, 198.99 296.15, 414.57 46.35 M1.91 521.06 C85.35 424.96, 169.17 328.86, 414.57 46.35 M1.64 527.46 C89.42 424.72, 178.5 322.14, 414.96 51.99 M1.64 527.46 C118.84 390.96, 237.17 255.29, 414.96 51.99 M2.04 533.1 C111.17 406.6, 221.38 278.2, 414.7 58.39 M2.04 533.1 C100.9 420.06, 199.9 307.07, 414.7 58.39 M1.78 539.5 C149.68 369.93, 298.96 199.27, 414.44 64.79 M1.78 539.5 C160.73 356.78, 320 173.94, 414.44 64.79 M1.52 545.9 C92.32 441.73, 183.49 338.52, 414.83 70.43 M1.52 545.9 C103.55 427.43, 205.82 309.35, 414.83 70.43 M1.91 551.54 C136.84 396.27, 272.61 239.76, 414.57 76.83 M1.91 551.54 C132.13 401, 263.59 249.22, 414.57 76.83 M1.65 557.94 C87.25 459.93, 172.57 360.98, 414.97 82.47 M1.65 557.94 C129.58 410.8, 256.76 263.12, 414.97 82.47 M2.04 563.58 C95.33 456.55, 188.53 350.44, 414.71 88.87 M2.04 563.58 C133.31 415.71, 262.49 266.33, 414.71 88.87 M1.78 569.98 C110.26 446.85, 217.48 323.73, 414.44 95.27 M1.78 569.98 C113.94 440.64, 225.17 313.08, 414.44 95.27 M1.52 576.38 C132.92 426.13, 261.85 276.95, 414.84 100.91 M1.52 576.38 C129.79 427.34, 259.16 278.83, 414.84 100.91 M1.92 582.02 C86.57 487.98, 168.12 392.11, 414.58 107.31 M1.92 582.02 C102.19 467.84, 202.27 353.05, 414.58 107.31 M2.97 586.91 C136.75 432.96, 269.09 280.52, 414.97 112.95 M2.97 586.91 C116.83 455.8, 229.28 326.17, 414.97 112.95 M4.67 591.04 C156.81 415.62, 311.16 240.02, 414.71 119.35 M4.67 591.04 C130.86 445.21, 256.71 301, 414.71 119.35 M5.72 595.93 C140.3 441.71, 273.96 289.5, 414.45 125.75 M5.72 595.93 C116.83 467.15, 228.76 337.49, 414.45 125.75 M8.74 598.56 C138.81 445.34, 271.51 294.83, 414.84 131.39 M8.74 598.56 C96.91 500.04, 182.85 400.48, 414.84 131.39 M11.76 601.18 C120.68 478.83, 227.52 355.84, 414.58 137.79 M11.76 601.18 C97.05 502.81, 182.21 405.48, 414.58 137.79 M14.12 604.56 C138.1 463.53, 261.28 322.71, 414.98 143.43 M14.12 604.56 C125.44 477.88, 235.3 351.1, 414.98 143.43 M18.46 605.67 C113.51 496.82, 208.04 388.71, 414.71 149.83 M18.46 605.67 C134.31 473.29, 250.08 339.9, 414.71 149.83 M23.44 606.03 C174.29 433.24, 323.45 260.37, 414.45 156.23 M23.44 606.03 C132.53 479.85, 240.69 355.03, 414.45 156.23 M27.77 607.15 C179.93 430.71, 331.84 254.87, 414.85 161.87 M27.77 607.15 C162.6 453.73, 296.96 298.83, 414.85 161.87 M32.76 607.51 C158.99 462.31, 283.43 318.88, 414.59 168.27 M32.76 607.51 C171.71 444.15, 312.31 282.24, 414.59 168.27 M37.75 607.87 C131.5 499.03, 224.68 390.78, 414.33 174.67 M37.75 607.87 C158.28 467.02, 280.36 326.72, 414.33 174.67 M43.39 607.47 C160.6 473.57, 277.18 338.8, 414.72 180.31 M43.39 607.47 C178.71 452.79, 314.87 297.03, 414.72 180.31 M48.38 607.83 C182.06 451.77, 316.23 296.7, 414.46 186.71 M48.38 607.83 C186.36 447.72, 326.07 286.89, 414.46 186.71 M54.02 607.44 C135.53 511.1, 219.13 416.17, 414.85 192.35 M54.02 607.44 C145.25 503.98, 235.37 400.05, 414.85 192.35 M59.01 607.8 C159.5 492.59, 260.55 377.14, 414.59 198.75 M59.01 607.8 C130.65 525.43, 202.75 442.12, 414.59 198.75 M64.65 607.41 C193.01 460.37, 322.29 312.64, 414.33 205.15 M64.65 607.41 C160.71 495.44, 258.41 383.81, 414.33 205.15 M69.64 607.77 C197.93 459.45, 327.83 310.32, 414.72 210.79 M69.64 607.77 C168.51 492.41, 267.06 379.02, 414.72 210.79 M74.62 608.13 C186.9 480.26, 299.67 351.34, 414.46 217.19 M74.62 608.13 C164.19 505.13, 254.01 401.77, 414.46 217.19 M80.27 607.73 C210.97 457.6, 340.32 307.15, 414.86 222.83 M80.27 607.73 C163 513.86, 244.1 419.53, 414.86 222.83 M85.25 608.09 C194.47 484.04, 300.36 359.91, 414.6 229.23 M85.25 608.09 C182.08 495.5, 279.4 382.55, 414.6 229.23 M90.9 607.7 C196.61 487.65, 302.4 366.79, 414.33 235.62 M90.9 607.7 C189.37 493.67, 288.52 379.18, 414.33 235.62 M95.88 608.06 C182.49 508.94, 268.79 410.62, 414.73 241.27 M95.88 608.06 C168.16 524.62, 240.28 441.66, 414.73 241.27 M101.53 607.66 C210.01 483.54, 316.37 360.51, 414.47 247.67 M101.53 607.66 C174.09 526.12, 245.61 443.94, 414.47 247.67 M106.51 608.02 C194.41 505.51, 285.9 401.28, 414.86 253.31 M106.51 608.02 C221.96 474.38, 337.22 342.04, 414.86 253.31 M112.16 607.63 C188.78 517.09, 266.43 429.74, 414.6 259.71 M112.16 607.63 C222.56 477.86, 334.42 349.18, 414.6 259.71 M117.14 607.99 C181.83 530.89, 248.26 453.84, 414.34 266.1 M117.14 607.99 C185.58 531.6, 253.09 454.26, 414.34 266.1 M122.79 607.59 C193.19 526.51, 263.73 445.11, 414.73 271.75 M122.79 607.59 C186.53 533.83, 249.69 461.17, 414.73 271.75 M127.78 607.95 C215.69 508.71, 302.25 410.05, 414.47 278.14 M127.78 607.95 C223.4 495.75, 320.51 384.81, 414.47 278.14 M133.42 607.56 C226.55 500.96, 319.05 393.35, 414.87 283.79 M133.42 607.56 C210.14 520.65, 285.48 433.73, 414.87 283.79 M138.41 607.92 C214.96 518.33, 292.74 431.48, 414.61 290.19 M138.41 607.92 C203.03 536.59, 267.69 462.69, 414.61 290.19 M144.05 607.52 C226.83 509.44, 311.36 412.48, 414.34 296.58 M144.05 607.52 C236.46 500.69, 329.28 393.97, 414.34 296.58 M149.04 607.88 C229.46 514.51, 310.67 421.26, 414.74 302.23 M149.04 607.88 C226.97 519.92, 305.05 429.8, 414.74 302.23 M154.68 607.49 C216.56 537.61, 277.11 468.27, 414.48 308.62 M154.68 607.49 C227.34 523.98, 300.06 441.01, 414.48 308.62 M159.67 607.85 C223.18 533.81, 286.9 459.39, 414.87 314.27 M159.67 607.85 C233.02 523.98, 304.48 441.27, 414.87 314.27 M165.31 607.45 C240.06 520.77, 313.76 433.1, 414.61 320.67 M165.31 607.45 C221.3 544.06, 277.43 480.58, 414.61 320.67 M170.3 607.82 C265.06 500.63, 361.3 389.92, 414.35 327.06 M170.3 607.82 C224.96 547.4, 278.13 485.86, 414.35 327.06 M175.94 607.42 C266.34 502.99, 356.49 398.35, 414.74 332.71 M175.94 607.42 C259.5 513.05, 342.29 418.67, 414.74 332.71 M180.93 607.78 C250.98 529.82, 318.77 452.83, 414.48 339.1 M180.93 607.78 C250.46 527.27, 319.1 449.17, 414.48 339.1 M186.57 607.39 C252.07 531.23, 317.71 457.67, 414.88 344.75 M186.57 607.39 C262.42 520.99, 338.45 433.08, 414.88 344.75 M191.56 607.75 C272.49 517.46, 349.94 426.58, 414.62 351.14 M191.56 607.75 C271.98 515.62, 353.3 420.94, 414.62 351.14 M196.54 608.11 C263.54 532.1, 329.49 454.74, 414.35 357.54 M196.54 608.11 C259.01 534.59, 322 461.54, 414.35 357.54 M202.19 607.71 C259.91 541.58, 314.39 476.38, 414.75 363.19 M202.19 607.71 C256.06 545.49, 310.96 482.25, 414.75 363.19 M207.17 608.07 C261.95 546.12, 316.14 481.19, 414.49 369.58 M207.17 608.07 C256.16 552.6, 305.14 494.98, 414.49 369.58 M212.82 607.68 C280.95 528.95, 348.07 451.99, 414.88 375.23 M212.82 607.68 C267.58 545.32, 320.73 483.64, 414.88 375.23 M217.8 608.04 C270.27 545.5, 325.05 485.91, 414.62 381.62 M217.8 608.04 C261.55 561.26, 303 511.96, 414.62 381.62 M223.45 607.64 C293.09 528.87, 364.59 448.12, 414.36 388.02 M223.45 607.64 C268.73 553.44, 315.72 499.48, 414.36 388.02 M228.43 608 C297.11 529.16, 363.59 451.2, 414.75 393.67 M228.43 608 C298.59 527.71, 367.82 449.2, 414.75 393.67 M234.08 607.61 C303.81 531.03, 371.07 451.75, 414.49 400.06 M234.08 607.61 C292.24 540.47, 349.56 472.42, 414.49 400.06 M239.06 607.97 C284.63 555.57, 331.77 501.46, 414.89 405.71 M239.06 607.97 C289.4 548.88, 339.64 491.39, 414.89 405.71 M244.71 607.57 C295.51 549.79, 348.53 487.44, 414.63 412.1 M244.71 607.57 C309.71 530.63, 376.44 454.5, 414.63 412.1 M249.69 607.93 C288.69 565.39, 327.18 519.86, 414.36 418.5 M249.69 607.93 C288.93 560.74, 330.43 514.81, 414.36 418.5 M255.34 607.54 C300.08 556.81, 343.07 507.08, 414.76 424.14 M255.34 607.54 C289.93 570.09, 323.19 531.3, 414.76 424.14 M260.32 607.9 C323.79 536.32, 382.89 467.05, 414.5 430.54 M260.32 607.9 C316.07 544.04, 370.77 480.81, 414.5 430.54 M265.97 607.5 C314.86 548.74, 366.89 492.91, 414.89 436.19 M265.97 607.5 C312.37 551.9, 359.1 498.94, 414.89 436.19 M270.95 607.86 C304.13 566.8, 338.22 529.78, 414.63 442.58 M270.95 607.86 C307.21 566.69, 342.19 527.16, 414.63 442.58 M276.6 607.47 C319.21 556.92, 366.61 503.29, 414.37 448.98 M276.6 607.47 C318.32 562.73, 358.57 516.93, 414.37 448.98 M281.58 607.83 C322.69 562.32, 361.25 513.09, 414.76 454.62 M281.58 607.83 C326.44 554.13, 373.41 500.9, 414.76 454.62 M287.23 607.44 C313.67 576.1, 341.54 542.27, 414.5 461.02 M287.23 607.44 C327.72 564.68, 365.85 520.35, 414.5 461.02 M292.21 607.8 C325.67 567.32, 362.12 526.51, 414.9 466.67 M292.21 607.8 C319.19 576.18, 347.1 545, 414.9 466.67 M297.86 607.4 C343.19 559.12, 385.18 508.86, 414.64 473.06 M297.86 607.4 C342.14 554.52, 387.19 502.31, 414.64 473.06 M302.84 607.76 C343.35 561.58, 381.33 515.83, 414.37 479.46 M302.84 607.76 C329.33 574.95, 357.38 543.22, 414.37 479.46 M307.83 608.12 C337.27 575.65, 363.51 547.22, 414.77 485.1 M307.83 608.12 C343.25 567.57, 379.1 526.28, 414.77 485.1 M313.47 607.73 C332.1 585.36, 354.88 559.04, 414.51 491.5 M313.47 607.73 C346.49 569.84, 379.66 532.93, 414.51 491.5 M318.46 608.09 C351.83 567.76, 387.86 529.09, 414.9 497.14 M318.46 608.09 C338.38 587.2, 358.54 563.84, 414.9 497.14 M324.1 607.69 C346.59 583.26, 365.22 560.17, 414.64 503.54 M324.1 607.69 C355.22 572.07, 387.34 535.35, 414.64 503.54 M329.09 608.05 C352.16 585.71, 371.71 560.11, 414.38 509.94 M329.09 608.05 C348.89 585.89, 368.42 564.01, 414.38 509.94 M334.73 607.66 C359.89 578.77, 387.39 547.61, 414.77 515.58 M334.73 607.66 C362.44 576.13, 391.01 542.11, 414.77 515.58 M339.72 608.02 C366.72 579.98, 391.13 546.95, 414.51 521.98 M339.72 608.02 C364.14 580.33, 388.45 552.33, 414.51 521.98 M345.36 607.62 C370.46 581.09, 391.82 554.5, 414.91 527.62 M345.36 607.62 C372.16 576.82, 397.9 547.59, 414.91 527.62 M350.35 607.98 C372.77 581.85, 394.03 555.31, 414.64 534.02 M350.35 607.98 C370.89 584.19, 391.1 559.75, 414.64 534.02 M355.99 607.59 C375.68 583.73, 398.67 558.99, 414.38 540.42 M355.99 607.59 C378.95 581.67, 402.34 553.49, 414.38 540.42 M360.98 607.95 C380.51 584.78, 400.85 560.3, 414.78 546.06 M360.98 607.95 C382.4 585.29, 402.99 560.62, 414.78 546.06 M366.62 607.55 C375.12 597, 389.34 584.32, 414.52 552.46 M366.62 607.55 C383.54 586.5, 401.48 566.52, 414.52 552.46 M371.61 607.91 C381.74 593.6, 393.28 583.38, 414.91 558.1 M371.61 607.91 C387.71 588.63, 406.42 569.02, 414.91 558.1 M377.25 607.52 C387.99 594.68, 398.33 583.44, 414.65 564.5 M377.25 607.52 C385.41 597.71, 393.84 589.9, 414.65 564.5 M381.59 608.63 C393.88 595.55, 407.07 579.82, 414.39 570.9 M381.59 608.63 C393.31 595.19, 403 584.08, 414.39 570.9 M387.88 607.49 C398.27 598.94, 404.08 586.96, 414.13 577.3 M387.88 607.49 C393.13 601.49, 400.2 593.11, 414.13 577.3 M394.84 605.58 C401.57 597.9, 407.16 592.82, 413.21 584.45 M394.84 605.58 C400.91 598.54, 406.94 591.62, 413.21 584.45" stroke="#a5d8ff" stroke-width="0.5" fill="none"/><path d="M32 0 C120.4 2.07, 212.25 1.21, 380.28 0 M32 0 C170.27 1.74, 307.88 2.29, 380.28 0 M380.28 0 C402.3 0.41, 410.81 10.73, 412.28 32 M380.28 0 C402.59 0.76, 414.25 9.48, 412.28 32 M412.28 32 C413.14 237.33, 412.11 443.98, 412.28 575.27 M412.28 32 C410.22 151.78, 410.12 271.35, 412.28 575.27 M412.28 575.27 C410.92 596.95, 402.03 607.59, 380.28 607.27 M412.28 575.27 C412.14 594.81, 403.52 609.49, 380.28 607.27 M380.28 607.27 C289.68 608.4, 199.17 606.87, 32 607.27 M380.28 607.27 C308.14 607.95, 237.48 607.45, 32 607.27 M32 607.27 C10.53 607.56, 1.37 595.58, 0 575.27 M32 607.27 C12.84 608.68, 1.61 597.69, 0 575.27 M0 575.27 C0.64 380.3, 0.76 186.84, 0 32 M0 575.27 C-2.46 408.79, -2.39 242.62, 0 32 M0 32 C1.76 9.38, 9.26 1.48, 32 0 M0 32 C-1.4 12.43, 11.24 1.91, 32 0" stroke="#1e1e1e" stroke-width="1" fill="none"/></g><g transform="translate(100.88524756493507 100.30793425324669) rotate(0 116.3316879272461 34.145850822081734)"><text x="0" y="0" font-family="Helvetica, Segoe UI Emoji" font-size="29.69204419311455px" fill="#1e1e1e" text-anchor="start" style="white-space: pre;" direction="ltr" dominant-baseline="text-before-edge">Origin: app.c.com</text><text x="0" y="34.145850822081734" font-family="Helvetica, Segoe UI Emoji" font-size="29.69204419311455px" fill="#1e1e1e" text-anchor="start" style="white-space: pre;" direction="ltr" dominant-baseline="text-before-edge"/></g><g transform="translate(113.21225649350663 241.10440340909065) rotate(0 110.5908203125 57.5)"><text x="0" y="0" font-family="Helvetica, Segoe UI Emoji" font-size="20px" fill="#1e1e1e" text-anchor="start" style="white-space: pre;" direction="ltr" dominant-baseline="text-before-edge">$.post({url: “api.c.com/x“,</text><text x="0" y="23" font-family="Helvetica, Segoe UI Emoji" font-size="20px" fill="#1e1e1e" text-anchor="start" style="white-space: pre;" direction="ltr" dominant-baseline="text-before-edge">success: function(r){ </text><text x="0" y="46" font-family="Helvetica, Segoe UI Emoji" font-size="20px" fill="#1e1e1e" text-anchor="start" style="white-space: pre;" direction="ltr" dominant-baseline="text-before-edge">$("#div1").html(r);</text><text x="0" y="69" font-family="Helvetica, Segoe UI Emoji" font-size="20px" fill="#1e1e1e" text-anchor="start" style="white-space: pre;" direction="ltr" dominant-baseline="text-before-edge">}</text><text x="0" y="92" font-family="Helvetica, Segoe UI Emoji" font-size="20px" fill="#1e1e1e" text-anchor="start" style="white-space: pre;" direction="ltr" dominant-baseline="text-before-edge">});</text></g><g stroke-linecap="round"><g transform="translate(598.3796672077923 23.799715909090708) rotate(0 0 293.4095982142856)"><path d="M2.8 2.16 C2.61 99.99, 1.54 491.42, 1.12 589.11 M0.87 0.87 C0.2 97.75, -0.14 488.22, -0.51 585.34" stroke="#846358" stroke-width="1" fill="none"/></g></g><mask/><g stroke-linecap="round"><g transform="translate(441.91203327922096 135.07008553403975) rotate(0 68.7276785714285 0.9468464375255081)"><path d="M0.98 0.65 C24.41 1.47, 116.6 3.09, 139.77 3.16 M-1.93 -1.46 C21.41 -1.32, 115.2 -2.03, 138.79 -1.17" stroke="#1971c2" stroke-width="1" fill="none"/></g><g transform="translate(441.91203327922096 135.07008553403975) rotate(0 68.7276785714285 0.9468464375255081)"><path d="M115.67 8.77 C122.55 6.61, 127.44 3.17, 139.6 -0.09 M115.62 8.01 C121.57 4.96, 126.05 2.12, 138.47 -1.97" stroke="#1971c2" stroke-width="1" fill="none"/></g><g transform="translate(441.91203327922096 135.07008553403975) rotate(0 68.7276785714285 0.9468464375255081)"><path d="M115.86 -8.33 C122.59 -5.85, 127.42 -4.65, 139.6 -0.09 M115.82 -9.09 C121.67 -7.97, 126.09 -6.65, 138.47 -1.97" stroke="#1971c2" stroke-width="1" fill="none"/></g></g><mask/><g transform="translate(473.39082792207796 106.69034090909076) rotate(0 37.783203125 11.5)"><text x="0" y="0" font-family="Helvetica, Segoe UI Emoji" font-size="20px" fill="#1971c2" text-anchor="start" style="white-space: pre;" direction="ltr" dominant-baseline="text-before-edge">POST /x</text></g><g transform="translate(559.1497564935065 635.3956980519478) rotate(0 43.36479187011719 14.960267857142867)"><text x="0" y="0" font-family="Helvetica, Segoe UI Emoji" font-size="26.017857142857167px" fill="#846358" text-anchor="start" style="white-space: pre;" direction="ltr" dominant-baseline="text-before-edge">chrome</text></g><g stroke-linecap="round" transform="translate(907.7937297077917 58.79762327516232) rotate(0 144.6819196428571 119.94140624999994)"><path d="M7.86 8.16 C7.86 8.16, 7.86 8.16, 7.86 8.16 M7.86 8.16 C7.86 8.16, 7.86 8.16, 7.86 8.16 M2.35 20.59 C7.55 11.78, 7.82 8.19, 18.1 2.48 M2.35 20.59 C4.34 16.23, 8.45 12.13, 18.1 2.48 M2.75 26.24 C10.97 13.67, 17.87 7.43, 24.4 1.33 M2.75 26.24 C8.91 18.1, 13.6 15, 24.4 1.33 M2.48 32.64 C9.45 19.47, 24.13 9.75, 30.7 0.18 M2.48 32.64 C9.58 24.33, 16.87 18.54, 30.7 0.18 M2.88 38.28 C15.83 20.68, 27.2 11.16, 34.37 2.05 M2.88 38.28 C10.86 28.49, 20.81 15.9, 34.37 2.05 M2.62 44.68 C11.5 26.74, 30.55 13.96, 39.36 2.41 M2.62 44.68 C8.88 35.66, 17.24 28.82, 39.36 2.41 M2.36 51.07 C11.73 36.41, 27.05 20.32, 45 2.02 M2.36 51.07 C17.47 32.48, 34.27 15.6, 45 2.02 M2.75 56.72 C18.06 36.94, 40.28 12.41, 49.99 2.38 M2.75 56.72 C13.74 43.98, 23.02 31.75, 49.99 2.38 M2.49 63.11 C20.97 43.85, 34.62 27.01, 55.63 1.98 M2.49 63.11 C15.76 47.11, 30.51 28.27, 55.63 1.98 M2.23 69.51 C20.89 40.88, 46.84 15.99, 60.62 2.34 M2.23 69.51 C17.7 53.64, 33.57 34.99, 60.62 2.34 M2.62 75.16 C19.11 59.56, 28.88 35.65, 66.26 1.95 M2.62 75.16 C20.68 53.01, 42.21 31.96, 66.26 1.95 M2.36 81.55 C19.94 52.74, 41.64 29.32, 71.25 2.31 M2.36 81.55 C20.03 61.91, 36.86 41.21, 71.25 2.31 M2.76 87.2 C27.17 52.86, 55.11 25.93, 76.89 1.91 M2.76 87.2 C23.38 57.55, 50.78 30, 76.89 1.91 M2.49 93.59 C25.45 62.22, 49.83 39.69, 81.88 2.27 M2.49 93.59 C23.42 68.99, 46.61 43.65, 81.88 2.27 M2.23 99.99 C20.22 76.7, 45.58 47.58, 87.52 1.88 M2.23 99.99 C24.37 77.25, 46.92 51.08, 87.52 1.88 M2.63 105.64 C25.42 78.93, 51.89 46.52, 92.51 2.24 M2.63 105.64 C38.32 66.06, 73.99 25.33, 92.51 2.24 M2.37 112.03 C27.81 82.72, 47.64 52.24, 98.15 1.85 M2.37 112.03 C37.27 70.77, 69.48 30.53, 98.15 1.85 M2.1 118.43 C23.22 89.12, 50.25 58.11, 103.14 2.21 M2.1 118.43 C26.09 89.75, 52.1 61.43, 103.14 2.21 M2.5 124.07 C44.37 77.31, 83.21 31.62, 108.78 1.81 M2.5 124.07 C40.24 83.3, 77.18 37.68, 108.78 1.81 M2.24 130.47 C31.58 96.77, 65.63 59.03, 113.77 2.17 M2.24 130.47 C44.84 83.25, 84.83 38.85, 113.77 2.17 M2.63 136.11 C44.52 85.48, 93.29 37.28, 119.41 1.78 M2.63 136.11 C43.63 84.61, 84.18 38.68, 119.41 1.78 M2.37 142.51 C45.86 89.34, 92.05 43.8, 124.4 2.14 M2.37 142.51 C35.72 100.37, 74.79 58.09, 124.4 2.14 M2.11 148.91 C41.79 102.83, 80.56 64.88, 130.04 1.74 M2.11 148.91 C40.53 105.55, 78.08 60.19, 130.04 1.74 M2.5 154.55 C32.03 115.75, 66.33 83.31, 135.03 2.1 M2.5 154.55 C47.01 105.35, 91.36 55.08, 135.03 2.1 M2.24 160.95 C51.81 100.47, 103.82 43.52, 140.67 1.71 M2.24 160.95 C40.21 119.19, 78.23 80.13, 140.67 1.71 M1.98 167.35 C40.74 125.48, 74.56 78.76, 145.66 2.07 M1.98 167.35 C44.21 114.38, 89.53 64.11, 145.66 2.07 M2.38 172.99 C38.62 128.3, 75.2 87.87, 150.65 2.43 M2.38 172.99 C34.06 133.1, 67.79 94.08, 150.65 2.43 M2.11 179.39 C54.36 125.49, 106.3 63.49, 156.29 2.03 M2.11 179.39 C32.28 138.59, 66.9 101.8, 156.29 2.03 M2.51 185.03 C67.44 108.26, 129.45 37.68, 161.28 2.39 M2.51 185.03 C52.62 126.11, 103.74 70.33, 161.28 2.39 M2.25 191.43 C45.35 135.57, 88.79 82.95, 166.92 2 M2.25 191.43 C43.93 143.91, 83.9 99.81, 166.92 2 M1.99 197.83 C55.97 133.34, 111.91 73.94, 171.91 2.36 M1.99 197.83 C46.43 142.09, 93.66 88.38, 171.91 2.36 M2.38 203.47 C67.99 129.39, 129.75 55.86, 177.55 1.96 M2.38 203.47 C52.65 147.68, 102.15 94.03, 177.55 1.96 M2.12 209.87 C56.7 153.52, 105.38 95.18, 182.54 2.32 M2.12 209.87 C53.52 152.96, 101.44 95.8, 182.54 2.32 M3.17 214.76 C78.55 130.2, 150.69 50.11, 188.18 1.93 M3.17 214.76 C43.82 171.11, 83.06 123.99, 188.18 1.93 M2.25 221.91 C49.64 170.67, 99.22 118.34, 193.17 2.29 M2.25 221.91 C58.19 162.4, 113.34 98.38, 193.17 2.29 M4.62 225.29 C63.89 154.95, 123.48 84.13, 198.81 1.9 M4.62 225.29 C59.34 169.41, 108.15 110, 198.81 1.9 M6.32 229.42 C65.29 160.26, 124.62 88.76, 203.8 2.26 M6.32 229.42 C62.39 171.95, 111.98 110.44, 203.8 2.26 M8.68 232.8 C61 175.5, 116.29 112.06, 209.44 1.86 M8.68 232.8 C56.47 176.43, 105.09 121.26, 209.44 1.86 M12.36 234.67 C65.98 172.49, 115.94 112.98, 214.43 2.22 M12.36 234.67 C51.88 189.77, 94.67 141.07, 214.43 2.22 M16.03 236.54 C89.82 152.35, 156.51 69.38, 220.07 1.83 M16.03 236.54 C72.74 172.57, 129.46 105.8, 220.07 1.83 M19.05 239.17 C67.88 182.4, 113.27 124.2, 225.06 2.19 M19.05 239.17 C78.69 171.91, 140.62 103.18, 225.06 2.19 M24.04 239.53 C70.28 187.36, 112.58 135.71, 230.7 1.79 M24.04 239.53 C82.02 170.05, 142.97 99.59, 230.7 1.79 M28.37 240.64 C85.42 175.47, 138.79 115.01, 235.69 2.15 M28.37 240.64 C99.43 162.29, 169.96 83.65, 235.69 2.15 M33.36 241 C107.34 160.1, 179.35 84.57, 241.33 1.76 M33.36 241 C105.7 163.36, 176.32 81.77, 241.33 1.76 M38.35 241.36 C106.67 167.47, 169.56 93.94, 246.32 2.12 M38.35 241.36 C102.36 166.72, 167.55 90.36, 246.32 2.12 M43.99 240.97 C103.09 172.68, 160.27 105.61, 251.96 1.72 M43.99 240.97 C97.38 178.7, 150.62 119.58, 251.96 1.72 M48.98 241.33 C97.83 182.33, 148.25 128.33, 258.26 0.57 M48.98 241.33 C107.71 174.42, 165.88 108.38, 258.26 0.57 M54.62 240.93 C103.88 189, 152.29 126.77, 262.59 1.69 M54.62 240.93 C134.91 146.48, 215.17 53.23, 262.59 1.69 M59.61 241.29 C113.49 182.66, 168.62 122.01, 267.58 2.05 M59.61 241.29 C101.21 189.57, 145.23 137.21, 267.58 2.05 M65.25 240.9 C132.8 164.15, 204.39 83.39, 272.56 2.41 M65.25 240.9 C129.9 168.13, 194.06 94.75, 272.56 2.41 M70.24 241.26 C116.78 187.51, 169.07 131.9, 275.58 5.03 M70.24 241.26 C142.9 152.71, 221.18 66.06, 275.58 5.03 M75.88 240.86 C129.08 175.65, 183.23 115.42, 279.26 6.9 M75.88 240.86 C134.9 171.77, 194.04 102.1, 279.26 6.9 M80.87 241.22 C131.61 182.68, 181.79 126.47, 282.93 8.77 M80.87 241.22 C154.7 154.86, 230.05 70.38, 282.93 8.77 M86.51 240.83 C147.71 166.3, 212.01 93.64, 284.64 12.91 M86.51 240.83 C124.63 191.72, 165.25 144.36, 284.64 12.91 M91.5 241.19 C165.91 154.24, 244.59 62.47, 287 16.28 M91.5 241.19 C148.41 180.06, 202.28 116.99, 287 16.28 M97.14 240.79 C160.99 165.73, 222.23 90.63, 289.36 19.66 M97.14 240.79 C146.61 187.18, 192.47 133.08, 289.36 19.66 M102.13 241.15 C167.26 162.97, 238.01 87.16, 289.76 25.31 M102.13 241.15 C161.34 168.65, 222.78 98.57, 289.76 25.31 M107.77 240.76 C158.17 183, 214.23 121.06, 290.81 30.19 M107.77 240.76 C180.59 153.59, 254.94 71.8, 290.81 30.19 M112.76 241.12 C168.46 180.98, 225.79 117.15, 292.52 34.33 M112.76 241.12 C184.05 159.62, 255.6 79.25, 292.52 34.33 M118.4 240.72 C186.36 158.27, 249.09 79.34, 292.25 40.73 M118.4 240.72 C179.52 168.12, 243.84 96.48, 292.25 40.73 M123.39 241.08 C183.48 177.34, 239.34 111.01, 291.99 47.12 M123.39 241.08 C177.47 178.34, 230.45 117.73, 291.99 47.12 M129.03 240.69 C184.06 170.19, 238.79 107.63, 292.39 52.77 M129.03 240.69 C172.08 188.18, 216.07 139.88, 292.39 52.77 M134.02 241.05 C175.08 192.65, 214.75 145.86, 292.13 59.16 M134.02 241.05 C168.67 200.69, 200.42 161.35, 292.13 59.16 M139 241.41 C189.1 187.39, 232.35 138.7, 292.52 64.81 M139 241.41 C187.71 191.13, 230.9 138.48, 292.52 64.81 M144.65 241.02 C202.66 175.29, 261.75 109.7, 292.26 71.21 M144.65 241.02 C190.75 187.75, 240.09 131.66, 292.26 71.21 M149.63 241.38 C189.89 195.18, 235.1 151.07, 292 77.6 M149.63 241.38 C193.55 194.07, 236.51 143.97, 292 77.6 M155.28 240.98 C207.86 179.89, 261.79 117.21, 292.39 83.25 M155.28 240.98 C206.67 181.64, 259.5 121.65, 292.39 83.25 M160.26 241.34 C211.09 183.87, 260.82 128.56, 292.13 89.64 M160.26 241.34 C185.28 211.19, 213.15 181.66, 292.13 89.64 M165.91 240.95 C194.17 208.66, 226.27 174.09, 292.53 95.29 M165.91 240.95 C194.78 201.19, 226.98 167.07, 292.53 95.29 M170.89 241.31 C218.32 189.05, 258.86 138.74, 292.26 101.69 M170.89 241.31 C210.88 193.76, 256.01 142.81, 292.26 101.69 M176.54 240.91 C218.97 194.13, 257.37 149.57, 292 108.08 M176.54 240.91 C210.14 205.08, 239.57 170.99, 292 108.08 M181.52 241.27 C210.05 206.97, 230.18 180.72, 292.4 113.73 M181.52 241.27 C226.53 191.05, 270.67 142.63, 292.4 113.73 M187.17 240.88 C227.06 195.58, 268.22 147.31, 292.14 120.12 M187.17 240.88 C219.56 202.78, 254.93 163.77, 292.14 120.12 M192.15 241.24 C225.33 204.66, 253.26 166.52, 292.53 125.77 M192.15 241.24 C230.98 202.12, 266.3 157.94, 292.53 125.77 M197.8 240.84 C215.8 214.79, 239.34 192.63, 292.27 132.16 M197.8 240.84 C228.64 204.72, 264.13 164.57, 292.27 132.16 M202.78 241.2 C229.48 206.33, 257 174.87, 292.01 138.56 M202.78 241.2 C224.75 213.13, 247.93 187.86, 292.01 138.56 M208.43 240.81 C240.88 204.82, 268.03 179.81, 292.4 144.21 M208.43 240.81 C232.8 213.82, 255.89 189.36, 292.4 144.21 M213.41 241.17 C240.41 211.48, 265.78 179.29, 292.14 150.6 M213.41 241.17 C230.18 220.33, 249.95 199.32, 292.14 150.6 M219.06 240.77 C231.7 226.82, 251.6 206.08, 292.54 156.25 M219.06 240.77 C235.65 217.3, 255.05 199.07, 292.54 156.25 M224.04 241.13 C238.38 228.91, 249.09 206.23, 292.27 162.64 M224.04 241.13 C248.24 211.02, 272.15 185.65, 292.27 162.64 M229.69 240.74 C251 213.15, 275.39 189.04, 292.01 169.04 M229.69 240.74 C255.75 215.02, 280.6 185.48, 292.01 169.04 M234.67 241.1 C248.95 220.44, 271.2 196.26, 292.41 174.68 M234.67 241.1 C255.33 217.46, 273.05 197.74, 292.41 174.68 M240.32 240.7 C257.32 221.17, 273.75 196.44, 292.15 181.08 M240.32 240.7 C253.55 223.57, 269.75 205.74, 292.15 181.08 M245.3 241.06 C262.11 223.66, 273.68 212.92, 292.54 186.73 M245.3 241.06 C263.86 221.16, 281.23 200.05, 292.54 186.73 M250.95 240.67 C264.79 227.2, 276.3 217.07, 292.28 193.12 M250.95 240.67 C260.9 230.02, 272.65 214.63, 292.28 193.12 M255.93 241.03 C263.07 227.73, 274.76 224.49, 292.02 199.52 M255.93 241.03 C264.76 230.6, 274.07 221.17, 292.02 199.52 M260.27 242.15 C266.52 233.69, 278.12 215.87, 289.79 208.18 M260.27 242.15 C270.1 229.87, 279.91 219.1, 289.79 208.18 M265.91 241.75 C274.54 230.82, 283.23 223.94, 288.87 215.34 M265.91 241.75 C269.71 233.01, 276.03 226.93, 288.87 215.34 M272.86 239.85 C274.87 231.18, 282.78 231.17, 287.95 222.49 M272.86 239.85 C277.3 235.22, 278.85 230.46, 287.95 222.49" stroke="#ffc9c9" stroke-width="0.5" fill="none"/><path d="M32 0 C112.56 -0.37, 194.05 3.67, 257.36 0 M32 0 C117.48 0.04, 203.75 1.5, 257.36 0 M257.36 0 C281.01 -3.52, 286.07 7.92, 289.36 32 M257.36 0 C279.17 -1.08, 293.92 13.34, 289.36 32 M289.36 32 C292.39 74.98, 291.83 119.5, 289.36 207.88 M289.36 32 C291.2 68.98, 289.49 103.83, 289.36 207.88 M289.36 207.88 C289.1 230.78, 282.68 239.78, 257.36 239.88 M289.36 207.88 C285.04 229.19, 279.88 238.93, 257.36 239.88 M257.36 239.88 C211.43 240.16, 163.23 241.17, 32 239.88 M257.36 239.88 C194.48 241.55, 128.62 241.26, 32 239.88 M32 239.88 C8.73 239.31, -0.32 226.08, 0 207.88 M32 239.88 C10.09 239.37, 0.46 228.63, 0 207.88 M0 207.88 C-2.46 140.15, 3.93 71.66, 0 32 M0 207.88 C2.16 144.72, 2.14 79.92, 0 32 M0 32 C-2.22 13.02, 13.95 0.86, 32 0 M0 32 C0.93 7.03, 10.59 2.88, 32 0" stroke="#846358" stroke-width="1" fill="none"/></g><g transform="translate(934.5232371540808 100.63346089091203) rotate(0 111.37368774414062 34.145850822081734)"><text x="0" y="0" font-family="Helvetica, Segoe UI Emoji" font-size="29.69204419311455px" fill="#1e1e1e" text-anchor="start" style="white-space: pre;" direction="ltr" dominant-baseline="text-before-edge">Origin: api.c.com</text><text x="0" y="34.145850822081734" font-family="Helvetica, Segoe UI Emoji" font-size="29.69204419311455px" fill="#1e1e1e" text-anchor="start" style="white-space: pre;" direction="ltr" dominant-baseline="text-before-edge"/></g><g stroke-linecap="round"><g transform="translate(612.9499797077922 132.636908989448) rotate(0 135.4882812499999 0.3999652862767711)"><path d="M-2.49 -1.57 C42.2 -1.07, 223.4 0.56, 269.13 1.13 M1.35 3.75 C46.85 4.94, 229.66 6.08, 274.53 4.94" stroke="#846358" stroke-width="1" fill="none"/></g><g transform="translate(612.9499797077922 132.636908989448) rotate(0 135.4882812499999 0.3999652862767711)"><path d="M249.97 12.33 C259.25 11.57, 267.63 6.17, 272.87 5.44 M251.48 13.09 C255.08 11.59, 261.55 9.86, 274.99 5.05" stroke="#846358" stroke-width="1" fill="none"/></g><g transform="translate(612.9499797077922 132.636908989448) rotate(0 135.4882812499999 0.3999652862767711)"><path d="M249.85 -4.77 C259.06 0.21, 267.47 0.55, 272.87 5.44 M251.37 -4.01 C255.15 -1.96, 261.63 -0.14, 274.99 5.05" stroke="#846358" stroke-width="1" fill="none"/></g></g><mask/><g transform="translate(648.1006493506494 99.64583756087654) rotate(0 55.5615234375 11.5)"><text x="0" y="0" font-family="Helvetica, Segoe UI Emoji" font-size="20px" fill="#846358" text-anchor="start" style="white-space: pre;" direction="ltr" dominant-baseline="text-before-edge">OPTIONS /x</text></g><g transform="translate(636.8171672077922 62.028650060876544) rotate(0 83.3447265625 11.5)"><text x="0" y="0" font-family="Helvetica, Segoe UI Emoji" font-size="20px" fill="#846358" text-anchor="start" style="white-space: pre;" direction="ltr" dominant-baseline="text-before-edge">由chrome自动发起</text></g><g stroke-linecap="round"><g transform="translate(895.5615868506493 239.8578911323051) rotate(0 -143.48214285714283 1.4118303571428328)"><path d="M-0.87 -2.79 C-48.97 -3.03, -241.65 -0.85, -289.53 0.31 M3.85 1.87 C-43.33 1.72, -235.44 2.99, -284.52 2.57" stroke="#e03131" stroke-width="1" fill="none"/></g><g transform="translate(895.5615868506493 239.8578911323051) rotate(0 -143.48214285714283 1.4118303571428328)"><path d="M-263.02 -7.81 C-269.04 -4.63, -272.56 -0.68, -285.8 1.02 M-261.71 -5.93 C-267.07 -3.35, -272.22 -2.37, -285.28 2.68" stroke="#e03131" stroke-width="1" fill="none"/></g><g transform="translate(895.5615868506493 239.8578911323051) rotate(0 -143.48214285714283 1.4118303571428328)"><path d="M-263.02 9.29 C-269.15 7.91, -272.67 7.3, -285.8 1.02 M-261.71 11.17 C-267.05 9.82, -272.2 6.88, -285.28 2.68" stroke="#e03131" stroke-width="1" fill="none"/></g></g><mask/><g transform="translate(619.4077406968032 261.10832039054685) rotate(0 131.69921875000006 23)"><text x="0" y="0" font-family="Helvetica, Segoe UI Emoji" font-size="20px" fill="#1e1e1e" text-anchor="start" style="white-space: pre;" direction="ltr" dominant-baseline="text-before-edge">Header:</text><text x="0" y="23" font-family="Helvetica, Segoe UI Emoji" font-size="20px" fill="#1e1e1e" text-anchor="start" style="white-space: pre;" direction="ltr" dominant-baseline="text-before-edge">Access-Control-Allow-Origin: *</text></g><g transform="translate(620.0091314935065 394.428203632305) rotate(0 32.16796875 -5.295758928571331)" stroke="none"><path fill="#846358" d="M 1.87,-1.25 Q 1.87,-1.25 2.87,0.37 3.88,2.00 4.55,3.08 5.22,4.16 5.84,5.27 6.47,6.38 7.61,9.19 8.75,11.99 9.40,13.31 10.04,14.62 11.05,17.68 12.05,20.74 12.47,21.73 12.88,22.71 14.32,19.92 15.77,17.13 18.20,14.06 20.63,10.99 25.70,4.54 30.78,-1.90 35.69,-7.63 40.60,-13.36 44.44,-17.53 48.28,-21.69 52.61,-26.07 56.94,-30.44 59.58,-33.30 62.23,-36.16 62.45,-36.33 62.68,-36.49 62.94,-36.58 63.21,-36.66 63.49,-36.66 63.76,-36.65 64.03,-36.56 64.29,-36.47 64.51,-36.29 64.72,-36.12 64.88,-35.89 65.03,-35.66 65.10,-35.39 65.17,-35.12 65.15,-34.84 65.13,-34.56 65.02,-34.31 64.91,-34.05 64.73,-33.84 64.55,-33.63 64.31,-33.49 64.07,-33.36 63.79,-33.30 63.52,-33.25 63.25,-33.28 62.97,-33.31 62.72,-33.44 62.47,-33.56 62.27,-33.75 62.07,-33.95 61.95,-34.19 61.82,-34.44 61.78,-34.72 61.74,-34.99 61.79,-35.26 61.84,-35.54 61.97,-35.78 62.11,-36.02 62.31,-36.21 62.52,-36.40 62.77,-36.51 63.03,-36.62 63.30,-36.65 63.58,-36.68 63.85,-36.61 64.12,-36.55 64.36,-36.40 64.59,-36.25 64.77,-36.04 64.94,-35.82 65.04,-35.56 65.14,-35.30 65.15,-35.02 65.16,-34.75 65.08,-34.48 65.00,-34.21 64.84,-33.99 64.68,-33.76 64.68,-33.76 64.68,-33.76 61.88,-31.05 59.07,-28.35 54.83,-23.97 50.59,-19.60 46.85,-15.42 43.12,-11.24 38.36,-5.49 33.59,0.25 28.67,6.78 23.74,13.31 21.50,16.51 19.26,19.70 17.25,22.61 15.24,25.52 13.81,26.24 12.39,26.96 10.57,25.54 8.76,24.12 8.46,23.04 8.16,21.95 7.17,19.18 6.18,16.41 5.59,15.05 5.01,13.70 3.68,11.11 2.35,8.53 1.83,7.42 1.30,6.32 0.83,5.34 0.36,4.35 -0.75,2.80 -1.87,1.25 -1.99,1.00 -2.11,0.76 -2.17,0.50 -2.23,0.23 -2.23,-0.03 -2.22,-0.30 -2.16,-0.56 -2.09,-0.83 -1.96,-1.06 -1.83,-1.30 -1.64,-1.50 -1.46,-1.70 -1.24,-1.85 -1.01,-2.00 -0.76,-2.10 -0.50,-2.19 -0.23,-2.22 0.03,-2.25 0.30,-2.21 0.57,-2.17 0.82,-2.07 1.07,-1.97 1.29,-1.81 1.51,-1.66 1.69,-1.45 1.87,-1.24 1.87,-1.24 L 1.87,-1.25 Z"/></g><g stroke-linecap="round"><g transform="translate(617.3305600649351 484.2663732751622) rotate(0 137.11774553571433 0.4631696428571104)"><path d="M2.27 2.17 C48.32 2.58, 230.73 2.81, 275.93 2.63 M0.06 0.89 C45.92 0.48, 229.41 -2.02, 274.62 -1.45" stroke="#1971c2" stroke-width="1" fill="none"/></g><g transform="translate(617.3305600649351 484.2663732751622) rotate(0 137.11774553571433 0.4631696428571104)"><path d="M252.7 8.37 C259.09 3.97, 264.73 1.53, 274.85 0.41 M251.66 6.61 C255.94 4.96, 260.02 4.51, 274.63 -1.48" stroke="#1971c2" stroke-width="1" fill="none"/></g><g transform="translate(617.3305600649351 484.2663732751622) rotate(0 137.11774553571433 0.4631696428571104)"><path d="M252.66 -8.73 C259.07 -8.23, 264.72 -5.77, 274.85 0.41 M251.62 -10.49 C256.06 -8.61, 260.15 -5.53, 274.63 -1.48" stroke="#1971c2" stroke-width="1" fill="none"/></g></g><mask/><g transform="translate(692.218952922078 457.2295429180193) rotate(0 37.783203125 11.5)"><text x="0" y="0" font-family="Helvetica, Segoe UI Emoji" font-size="20px" fill="#1971c2" text-anchor="start" style="white-space: pre;" direction="ltr" dominant-baseline="text-before-edge">POST /x</text></g><g stroke-linecap="round"><g transform="translate(890.1821225649348 556.1971768465908) rotate(0 -138.9843749999999 0)"><path d="M-0.92 -0.2 C-46.98 -0.8, -229.81 -2.62, -276.44 -2.37 M3.78 -2.78 C-42.51 -3.22, -231.33 0.09, -277.84 -0.02" stroke="#e03131" stroke-width="1" fill="none"/></g><g transform="translate(890.1821225649348 556.1971768465908) rotate(0 -138.9843749999999 0)"><path d="M-254.57 -7.68 C-263.04 -8.19, -267.34 -3.62, -279.12 0.94 M-255.13 -9.67 C-260.51 -7.77, -265.29 -5.82, -278.09 -0.07" stroke="#e03131" stroke-width="1" fill="none"/></g><g transform="translate(890.1821225649348 556.1971768465908) rotate(0 -138.9843749999999 0)"><path d="M-254.42 9.42 C-263.01 3.83, -267.36 3.31, -279.12 0.94 M-254.99 7.43 C-260.43 5.57, -265.24 3.77, -278.09 -0.07" stroke="#e03131" stroke-width="1" fill="none"/></g></g><mask/><g stroke-linecap="round"><g transform="translate(580.8015422077922 557.1290964894479) rotate(0 -70.10602678571422 0)"><path d="M-0.86 1.81 C-24.2 2.4, -119.04 1.89, -142.2 1.47 M3.87 0.32 C-18.39 0.27, -112.66 -3.02, -136.87 -2.74" stroke="#e03131" stroke-width="1" fill="none"/></g><g transform="translate(580.8015422077922 557.1290964894479) rotate(0 -70.10602678571422 0)"><path d="M-111.97 -12.37 C-117.54 -8.91, -124.39 -8.75, -135.11 -1.51 M-114.2 -10.94 C-119.9 -9.74, -126.31 -6.04, -137.63 -1.99" stroke="#e03131" stroke-width="1" fill="none"/></g><g transform="translate(580.8015422077922 557.1290964894479) rotate(0 -70.10602678571422 0)"><path d="M-112.21 4.73 C-117.61 4.37, -124.41 0.71, -135.11 -1.51 M-114.45 6.16 C-120 2.29, -126.34 0.93, -137.63 -1.99" stroke="#e03131" stroke-width="1" fill="none"/></g></g><mask/><g transform="translate(690.304890422078 572.5978464894479) rotate(0 45.029296875 11.5)"><text x="0" y="0" font-family="Helvetica, Segoe UI Emoji" font-size="20px" fill="#e03131" text-anchor="start" style="white-space: pre;" direction="ltr" dominant-baseline="text-before-edge">Response</text></g><g stroke-linecap="round" transform="translate(884.1677268044452 277.3784808941057) rotate(0 13.004807692307736 19.128605769230774)"><path d="M6.5 0 C11.05 -2.14, 16.4 -1.88, 19.51 0 M6.5 0 C10.11 0.92, 12.86 1.1, 19.51 0 M19.51 0 C22.29 2.32, 24.5 3.53, 26.01 6.5 M19.51 0 C20.56 -2.59, 29.08 0.85, 26.01 6.5 M26.01 6.5 C29.62 12.53, 22.42 23.56, 26.01 31.75 M26.01 6.5 C27.24 11.73, 27.1 17.28, 26.01 31.75 M26.01 31.75 C24.85 33.3, 20.61 37.5, 19.51 38.26 M26.01 31.75 C21.5 32.41, 20.26 40.99, 19.51 38.26 M19.51 38.26 C17.79 36.23, 10.81 37.04, 6.5 38.26 M19.51 38.26 C16.72 37.67, 12.45 38.54, 6.5 38.26 M6.5 38.26 C3.74 37.61, 0.75 33.32, 0 31.75 M6.5 38.26 C2.42 34.83, -4.27 38.33, 0 31.75 M0 31.75 C3.23 26.69, 1.48 15.73, 0 6.5 M0 31.75 C1.4 24.72, -0.16 13.87, 0 6.5 M0 6.5 C-0.09 3.47, -0.23 3.45, 6.5 0 M0 6.5 C3.12 6.74, 2.32 2.82, 6.5 0" stroke="#e03131" stroke-width="1" fill="none"/></g><g stroke-linecap="round"><g transform="translate(1001.9201306505993 415.2570866633365) rotate(0 -42.43689903846155 -40.772235576923094)"><path d="M-1.94 0.15 C-16.36 -13.96, -73.37 -70.71, -86.96 -84.14 M2.2 -2.23 C-11.29 -16.14, -67.23 -68.06, -81.69 -81.93" stroke="#2f9e44" stroke-width="1" fill="none"/></g><g transform="translate(1001.9201306505993 415.2570866633365) rotate(0 -42.43689903846155 -40.772235576923094)"><path d="M-58.62 -73.52 C-67.13 -74.02, -71.02 -76.92, -83.6 -80.2 M-58.32 -72.94 C-68.27 -75.33, -75.74 -79.94, -82 -81.95" stroke="#2f9e44" stroke-width="1" fill="none"/></g><g transform="translate(1001.9201306505993 415.2570866633365) rotate(0 -42.43689903846155 -40.772235576923094)"><path d="M-70.36 -61.08 C-75.55 -65.03, -76.12 -71.46, -83.6 -80.2 M-70.05 -60.5 C-75.52 -67.73, -78.45 -77.15, -82 -81.95" stroke="#2f9e44" stroke-width="1" fill="none"/></g></g><mask/></svg>