<svg version="1.1" xmlns="http://www.w3.org/2000/svg" viewBox="0 0 1424.865324953558 541.1223288096028" width="1424.865324953558" height="541.1223288096028" class="excalidraw-svg">
  <!-- svg-source:excalidraw -->
  
  <defs>
    <style class="style-fonts">
      @font-face {
        font-family: "Virgil";
        src: url("https://excalidraw.com/Virgil.woff2");
      }
      @font-face {
        font-family: "Cascadia";
        src: url("https://excalidraw.com/Cascadia.woff2");
      }
      @font-face {
        font-family: "Assistant";
        src: url("https://excalidraw.com/Assistant-Regular.woff2");
      }
    </style>
    
  </defs>
  <rect x="0" y="0" width="1424.865324953558" height="541.1223288096028" fill="#ffffff"/><g stroke-linecap="round" transform="translate(10 24.630401120053335) rotate(0 326.0670868032122 94.35359884165396)"><path d="M32 0 C218.19 -1.26, 406.94 -1.91, 620.13 0 M32 0 C215.9 3.88, 398.45 2.96, 620.13 0 M620.13 0 C642.25 -0.43, 653.71 11.29, 652.13 32 M620.13 0 C639.32 -2.13, 652.8 13.69, 652.13 32 M652.13 32 C651.14 69.36, 651.1 114.68, 652.13 156.71 M652.13 32 C651.52 78.85, 652.95 121.75, 652.13 156.71 M652.13 156.71 C648.31 179.48, 639.18 186.02, 620.13 188.71 M652.13 156.71 C653.23 176.72, 638.58 192.31, 620.13 188.71 M620.13 188.71 C419.08 190.49, 218.52 190.83, 32 188.71 M620.13 188.71 C396.21 187.07, 172.26 186.35, 32 188.71 M32 188.71 C8.39 191.21, -1.38 180.43, 0 156.71 M32 188.71 C10.06 192.71, 3.41 180.17, 0 156.71 M0 156.71 C-0.71 123.96, -4.14 81.93, 0 32 M0 156.71 C0.75 110.83, 0.84 67.55, 0 32 M0 32 C0.06 14.31, 14.53 -0.66, 32 0 M0 32 C0.09 8.7, 6.19 4.48, 32 0" stroke="#000000" stroke-width="1" fill="none"/></g><g stroke-linecap="round"><g transform="translate(14.798360337131726 91.22509110871718) rotate(0 321.13830327107615 0)"><path d="M-0.94 2.4 C105.69 2.62, 532.82 1.02, 640.19 0.32 M3.74 1.23 C111.21 2.06, 539.08 4.28, 645.47 4.12" stroke="#000000" stroke-width="1" fill="none"/></g></g><mask/><g transform="translate(53.9617160090952 45.589105247474805) rotate(0 67.30782318115234 17.858878422902738)"><text x="0" y="0" font-family="Helvetica, Segoe UI Emoji" font-size="31.058918996352592px" fill="#000000" text-anchor="start" style="white-space: pre;" direction="ltr" dominant-baseline="text-before-edge">bank.com</text></g><g stroke-linecap="round" transform="translate(11.342241889661523 342.4151311262949) rotate(0 326.0670868032122 94.35359884165395)"><path d="M32 0 C245.35 -0.43, 460.8 -0.57, 620.13 0 M32 0 C174.4 -1.11, 317.29 -1.91, 620.13 0 M620.13 0 C642.51 -1.69, 650.43 13.01, 652.13 32 M620.13 0 C643.52 0.33, 648.3 6.71, 652.13 32 M652.13 32 C650.54 63.5, 650.28 89.89, 652.13 156.71 M652.13 32 C653.75 72.1, 650 115.66, 652.13 156.71 M652.13 156.71 C654.14 176.99, 639.68 192.25, 620.13 188.71 M652.13 156.71 C648.96 175.44, 639.68 187.22, 620.13 188.71 M620.13 188.71 C450.72 192.71, 281.25 192.6, 32 188.71 M620.13 188.71 C391.02 192.43, 161.71 191.08, 32 188.71 M32 188.71 C10.72 186.1, -2.97 177.44, 0 156.71 M32 188.71 C10.26 191.92, -2.47 181.58, 0 156.71 M0 156.71 C3.83 112.99, -0.85 79.16, 0 32 M0 156.71 C1.91 117.79, 0.29 79.47, 0 32 M0 32 C-3.88 14.01, 11.6 1.83, 32 0 M0 32 C-3.97 10, 10.57 4.14, 32 0" stroke="#000000" stroke-width="1" fill="none"/></g><g stroke-linecap="round"><g transform="translate(16.14060222679325 409.00982111495875) rotate(0 321.13830327107615 0)"><path d="M1.82 0.83 C108.98 0.81, 536.95 -1.59, 643.86 -1.6 M-0.64 -1.18 C106.21 -0.74, 535.37 0.25, 642.48 1.16" stroke="#000000" stroke-width="1" fill="none"/></g></g><mask/><g transform="translate(55.30395789875672 363.3738352537164) rotate(0 88.0179214477539 17.858878422902734)"><text x="0" y="0" font-family="Helvetica, Segoe UI Emoji" font-size="31.058918996352592px" fill="#000000" text-anchor="start" style="white-space: pre;" direction="ltr" dominant-baseline="text-before-edge">attacker.com</text></g><g stroke-linecap="round"><g transform="translate(717.1749536928743 74.72011885683742) rotate(0 209.8437500000001 0)"><path d="M-0.29 -0.97 C69.37 -0.74, 348.73 0.66, 418.88 0.91 M1.76 1.14 C71.72 1.08, 351.41 -0.29, 421.16 -0.73" stroke="#1e1e1e" stroke-width="1" fill="none"/></g><g transform="translate(717.1749536928743 74.72011885683742) rotate(0 209.8437500000001 0)"><path d="M397.72 7.94 C404.96 3.39, 416.9 2.94, 421.16 -0.73 M397.72 7.94 C405.73 5.82, 412.94 2.39, 421.16 -0.73" stroke="#1e1e1e" stroke-width="1" fill="none"/></g><g transform="translate(717.1749536928743 74.72011885683742) rotate(0 209.8437500000001 0)"><path d="M397.62 -9.16 C404.83 -7.28, 416.81 -1.3, 421.16 -0.73 M397.62 -9.16 C405.79 -5.35, 413.03 -2.87, 421.16 -0.73" stroke="#1e1e1e" stroke-width="1" fill="none"/></g></g><mask/><g transform="translate(740.5213078595408 28.711004273504045) rotate(0 48.3642578125 11.5)"><text x="0" y="0" font-family="Helvetica, Segoe UI Emoji" font-size="20px" fill="#1e1e1e" text-anchor="start" style="white-space: pre;" direction="ltr" dominant-baseline="text-before-edge">post / login</text></g><g stroke-linecap="round"><g transform="translate(1142.8542071650968 146.23487580128187) rotate(0 -210.0065104166668 0)"><path d="M1.17 0.88 C-68.85 0.71, -350.45 0.18, -420.57 -0.06 M0.33 0.29 C-69.86 0.24, -351.75 1.42, -421.8 1.45" stroke="#1e1e1e" stroke-width="1" fill="none"/></g><g transform="translate(1142.8542071650968 146.23487580128187) rotate(0 -210.0065104166668 0)"><path d="M-398.33 -7.16 C-403.03 -5.56, -410.8 -1.5, -421.8 1.45 M-398.33 -7.16 C-404.63 -4.51, -411.06 -3.43, -421.8 1.45" stroke="#1e1e1e" stroke-width="1" fill="none"/></g><g transform="translate(1142.8542071650968 146.23487580128187) rotate(0 -210.0065104166668 0)"><path d="M-398.29 9.94 C-403.13 7, -410.92 6.53, -421.8 1.45 M-398.29 9.94 C-404.63 8.26, -411.08 5.01, -421.8 1.45" stroke="#1e1e1e" stroke-width="1" fill="none"/></g></g><mask/><g transform="translate(766.4023842484298 117.1398237179485) rotate(0 28.90625 11.5)"><text x="0" y="0" font-family="Helvetica, Segoe UI Emoji" font-size="20px" fill="#1e1e1e" text-anchor="start" style="white-space: pre;" direction="ltr" dominant-baseline="text-before-edge">cookie</text></g><g transform="translate(45.25707448007239 463.1144740675992) rotate(0 263.8204345703125 14.351458192469835)"><text x="0" y="0" font-family="Helvetica, Segoe UI Emoji" font-size="24.959057726034487px" fill="#1e1e1e" text-anchor="start" style="white-space: pre;" direction="ltr" dominant-baseline="text-before-edge">&lt;img src=“https://bank.com/img/usr.jpg”&gt; &lt;/img&gt;</text></g><g stroke-linecap="round"><g transform="translate(711.9534637460938 399.0536780223234) rotate(0 209.84375000000009 0)"><path d="M-1.04 -1.17 C68.54 -0.93, 348.39 0.81, 418.66 1.14 M0.61 0.83 C70.46 0.8, 350.89 -0.06, 420.84 -0.38" stroke="#1e1e1e" stroke-width="1" fill="none"/></g><g transform="translate(711.9534637460938 399.0536780223234) rotate(0 209.84375000000009 0)"><path d="M397.38 8.26 C404.71 3.35, 417.83 3.16, 420.84 -0.38 M397.38 8.26 C406.46 4.69, 415.3 2.32, 420.84 -0.38" stroke="#1e1e1e" stroke-width="1" fill="none"/></g><g transform="translate(711.9534637460938 399.0536780223234) rotate(0 209.84375000000009 0)"><path d="M397.31 -8.84 C404.62 -7, 417.77 -0.44, 420.84 -0.38 M397.31 -8.84 C406.41 -6.11, 415.27 -2.18, 420.84 -0.38" stroke="#1e1e1e" stroke-width="1" fill="none"/></g></g><mask/><g transform="translate(735.2998179127603 353.04456343899005) rotate(0 156.99218749999997 11.500000000000014)"><text x="0" y="0" font-family="Helvetica, Segoe UI Emoji" font-size="20px" fill="#1e1e1e" text-anchor="start" style="white-space: pre;" direction="ltr" dominant-baseline="text-before-edge">get /img/usr.jpg  with bank's cookie </text></g><g stroke-linecap="round"><g transform="translate(1130.3479699127656 471.3070822406761) rotate(0 -207.0192307692309 0)"><path d="M-0.78 -0.41 C-69.52 -0.59, -344.23 -0.42, -413.18 -0.31 M1.01 -1.67 C-67.75 -1.74, -344.27 0.5, -413.68 1.07" stroke="#1e1e1e" stroke-width="1" fill="none"/></g><g transform="translate(1130.3479699127656 471.3070822406761) rotate(0 -207.0192307692309 0)"><path d="M-390.26 -7.67 C-396.52 -4.3, -401.98 -4.37, -413.68 1.07 M-390.26 -7.67 C-397.42 -4.34, -405.7 -1.29, -413.68 1.07" stroke="#1e1e1e" stroke-width="1" fill="none"/></g><g transform="translate(1130.3479699127656 471.3070822406761) rotate(0 -207.0192307692309 0)"><path d="M-390.12 9.43 C-396.52 8.69, -402.01 4.51, -413.68 1.07 M-390.12 9.43 C-397.39 7.28, -405.72 4.85, -413.68 1.07" stroke="#1e1e1e" stroke-width="1" fill="none"/></g></g><mask/><g transform="translate(766.7121526050729 442.058284163753) rotate(0 16.11328125 11.5)"><text x="0" y="0" font-family="Helvetica, Segoe UI Emoji" font-size="20px" fill="#1e1e1e" text-anchor="start" style="white-space: pre;" direction="ltr" dominant-baseline="text-before-edge">img</text></g><g stroke-linecap="round" transform="translate(1212.865324953558 337.3899147727274) rotate(0 101 88.5)"><path d="M32 0 C65.34 2.38, 97.19 2.19, 170 0 M32 0 C77.69 1.86, 124.26 0.41, 170 0 M170 0 C192.07 -0.69, 201.9 12.19, 202 32 M170 0 C193.62 0.83, 203.38 12.19, 202 32 M202 32 C200.94 58.77, 200.55 85.97, 202 145 M202 32 C201.69 54.13, 202.16 78.55, 202 145 M202 145 C201.75 167.82, 189.8 175.23, 170 177 M202 145 C199.75 168.29, 192.15 178.47, 170 177 M170 177 C143.91 176.66, 112.3 176.42, 32 177 M170 177 C139.69 177.17, 109.41 176.96, 32 177 M32 177 C10.85 175.47, 0.5 165.98, 0 145 M32 177 C10.9 178.16, -1.87 167.63, 0 145 M0 145 C-2.91 110.87, 0.46 77.74, 0 32 M0 145 C0.55 98.97, 0.75 55.25, 0 32 M0 32 C-0.49 10.57, 11.42 0.88, 32 0 M0 32 C-0.65 9.91, 8.74 1.36, 32 0" stroke="#1e1e1e" stroke-width="1" fill="none"/></g><g transform="translate(1261.619231203558 414.3899147727274) rotate(0 52.24609375 11.5)"><text x="52.24609375" y="0" font-family="Helvetica, Segoe UI Emoji" font-size="20px" fill="#1e1e1e" text-anchor="middle" style="white-space: pre;" direction="ltr" dominant-baseline="text-before-edge">bank server</text></g><g stroke-linecap="round" transform="translate(1209.9924556353765 10) rotate(0 101 88.5)"><path d="M32 0 C62.09 -2.1, 93.56 0.71, 170 0 M32 0 C78.16 -0.76, 122.74 0.27, 170 0 M170 0 C191.2 -1.11, 202.9 11.99, 202 32 M170 0 C193.61 1.92, 200.9 9.12, 202 32 M202 32 C201.77 63.31, 204.87 91.99, 202 145 M202 32 C201.1 60.26, 201.19 86.59, 202 145 M202 145 C202 165.72, 191.94 176.72, 170 177 M202 145 C202.42 166.22, 189.08 179.05, 170 177 M170 177 C125.75 178.21, 84.93 176.54, 32 177 M170 177 C132.22 178.41, 93.59 177.36, 32 177 M32 177 C12.44 175.74, 1.48 165.51, 0 145 M32 177 C11.75 176.06, 0.73 168.6, 0 145 M0 145 C1.56 116.18, -0.64 87.78, 0 32 M0 145 C1.2 117.1, 1.7 88.98, 0 32 M0 32 C0.41 12.08, 10.98 -1.66, 32 0 M0 32 C-1.06 8.85, 10.26 -1.81, 32 0" stroke="#1e1e1e" stroke-width="1" fill="none"/></g><g transform="translate(1258.7463618853765 87) rotate(0 52.24609375 11.5)"><text x="52.24609375" y="0" font-family="Helvetica, Segoe UI Emoji" font-size="20px" fill="#1e1e1e" text-anchor="middle" style="white-space: pre;" direction="ltr" dominant-baseline="text-before-edge">bank server</text></g></svg>