<svg version="1.1" xmlns="http://www.w3.org/2000/svg" viewBox="0 0 801.38671875 349.6484375" width="801.38671875" height="349.6484375" class="excalidraw-svg">
  <!-- svg-source:excalidraw -->
  
  <defs>
    <style class="style-fonts">
      @font-face {
        font-family: "Virgil";
        src: url("https://excalidraw.com/Virgil.woff2");
      }
      @font-face {
        font-family: "Cascadia";
        src: url("https://excalidraw.com/Cascadia.woff2");
      }
      @font-face {
        font-family: "Assistant";
        src: url("https://excalidraw.com/Assistant-Regular.woff2");
      }
    </style>
    
  </defs>
  <rect x="0" y="0" width="801.38671875" height="349.6484375" fill="#ffffff"/><g stroke-linecap="round" transform="translate(10 10) rotate(0 246.767578125 164.82421875)"><path d="M32 0 C135.34 -1.13, 239.78 -0.58, 461.54 0 M32 0 C137.86 1.99, 242.93 1.66, 461.54 0 M461.54 0 C481.06 -1.19, 493.83 9.5, 493.54 32 M461.54 0 C484.35 -2.06, 493.76 12.43, 493.54 32 M493.54 32 C492.39 125.03, 491.7 216.86, 493.54 297.65 M493.54 32 C494.07 118.23, 494.42 205.12, 493.54 297.65 M493.54 297.65 C491.69 317.06, 481.09 328.65, 461.54 329.65 M493.54 297.65 C491.29 320.23, 481.37 329.52, 461.54 329.65 M461.54 329.65 C320.86 330.27, 181.74 330.66, 32 329.65 M461.54 329.65 C292.24 331.53, 123.28 331.63, 32 329.65 M32 329.65 C12.25 329.35, -0.03 317.1, 0 297.65 M32 329.65 C12.48 331.04, -1.92 318.69, 0 297.65 M0 297.65 C-3.14 193.5, -2.38 86.64, 0 32 M0 297.65 C0.64 233.7, -0.01 169.42, 0 32 M0 32 C1.4 11.54, 12.41 0.84, 32 0 M0 32 C-1.95 9.33, 11.45 -1.18, 32 0" stroke="#1e1e1e" stroke-width="1" fill="none"/></g><g stroke-linecap="round"><g transform="translate(11.50390625 51.06640625) rotate(0 245.62109375 0)"><path d="M-0.92 0.57 C81.23 0.39, 409.97 -0.08, 492.14 -0.03 M0.8 -0.17 C82.94 0.37, 409.83 1.63, 491.66 1.49" stroke="#1e1e1e" stroke-width="1" fill="none"/></g></g><mask/><g transform="translate(37.8515625 23.1328125) rotate(0 56.6943359375 11.5)"><text x="0" y="0" font-family="Helvetica, Segoe UI Emoji" font-size="20px" fill="#1e1e1e" text-anchor="start" style="white-space: pre;" direction="ltr" dominant-baseline="text-before-edge">attacker.com</text></g><g stroke-linecap="round" transform="translate(293.41796875 133.94140625) rotate(0 83.5 84)"><path d="M32 0 C56.43 -1.5, 78.5 -1.64, 135 0 M32 0 C53.63 0.99, 74.51 0.59, 135 0 M135 0 C155.78 -1.72, 168.63 10.23, 167 32 M135 0 C156.56 -0.23, 168.41 10.44, 167 32 M167 32 C165.15 71.62, 166.33 111.02, 167 136 M167 32 C167.13 58.71, 166.84 85.37, 167 136 M167 136 C166.08 157.1, 156.14 168.78, 135 168 M167 136 C167.07 158.9, 155.49 166.85, 135 168 M135 168 C101.63 167.72, 72.44 168.1, 32 168 M135 168 C110.97 168.35, 85.99 168.39, 32 168 M32 168 C10.74 168.32, 0.88 156.82, 0 136 M32 168 C12.25 169.33, 1.35 159.24, 0 136 M0 136 C0.26 96.46, -0.44 55.93, 0 32 M0 136 C-0.66 96.51, -0.38 56.33, 0 32 M0 32 C0.32 9.15, 9.49 1.94, 32 0 M0 32 C-0.96 9.72, 12.89 1.82, 32 0" stroke="#1e1e1e" stroke-width="1" fill="none"/></g><g transform="translate(333.5634765625 206.44140625) rotate(0 43.3544921875 11.5)"><text x="43.3544921875" y="0" font-family="Helvetica, Segoe UI Emoji" font-size="20px" fill="#1e1e1e" text-anchor="middle" style="white-space: pre;" direction="ltr" dominant-baseline="text-before-edge">bank.com</text></g><g transform="translate(99.66015625 276.7890625) rotate(0 56.6943359375 11.5)"><text x="0" y="0" font-family="Helvetica, Segoe UI Emoji" font-size="20px" fill="#1e1e1e" text-anchor="start" style="white-space: pre;" direction="ltr" dominant-baseline="text-before-edge">attacker.com</text></g><g stroke-linecap="round"><g transform="translate(166.72265625 267.1875) rotate(0 58.427734375 -25.783203125)"><path d="M-1.14 -0.49 C6.51 -6.83, 26.04 -30.36, 45.66 -38.89 C65.29 -47.42, 104.71 -49.61, 116.64 -51.65 M0.46 -1.79 C7.93 -8.41, 25.24 -32.6, 44.46 -40.7 C63.67 -48.8, 103.55 -48.86, 115.75 -50.38" stroke="#1e1e1e" stroke-width="1" fill="none"/></g><g transform="translate(166.72265625 267.1875) rotate(0 58.427734375 -25.783203125)"><path d="M92.93 -40.17 C98.61 -43.66, 106.82 -46.07, 115.75 -50.38 M92.93 -40.17 C99.28 -42.86, 105.72 -46.79, 115.75 -50.38" stroke="#1e1e1e" stroke-width="1" fill="none"/></g><g transform="translate(166.72265625 267.1875) rotate(0 58.427734375 -25.783203125)"><path d="M91.71 -57.23 C97.62 -55.9, 106.17 -53.52, 115.75 -50.38 M91.71 -57.23 C98.47 -54.93, 105.26 -53.87, 115.75 -50.38" stroke="#1e1e1e" stroke-width="1" fill="none"/></g></g><mask/><g stroke-linecap="round"><g transform="translate(222.76171875 195.5) rotate(0 -6.28515625 12.841796875)"><path d="M-0.15 0.15 C-2.23 4.29, -10.14 20.91, -12.14 25.21 M0.78 -0.24 C-1.37 3.92, -10.18 21.46, -12.35 25.67" stroke="#e03131" stroke-width="1" fill="none"/></g></g><mask/><g stroke-linecap="round"><g transform="translate(205.55859375 201.21484375) rotate(0 11.470703125 7.23828125)"><path d="M0.28 -0.48 C4.08 2.06, 19.37 12.42, 23.12 14.94 M-0.24 0.47 C3.48 2.88, 19.01 12.01, 22.78 14.21" stroke="#e03131" stroke-width="1" fill="none"/></g></g><mask/><g stroke-linecap="round" transform="translate(624.38671875 132.2783203125) rotate(0 83.5 84)"><path d="M32 0 C53.05 -1.17, 76.68 -1.56, 135 0 M32 0 C62.28 0.67, 90.66 0.79, 135 0 M135 0 C154.67 0.52, 166.43 11.63, 167 32 M135 0 C158.49 -2.12, 165.16 9.54, 167 32 M167 32 C169.72 63.02, 167.99 93.57, 167 136 M167 32 C167.09 59.02, 167.02 86.12, 167 136 M167 136 C167.96 159.04, 154.79 167.32, 135 168 M167 136 C167.83 155.8, 155.78 168.15, 135 168 M135 168 C105.81 167.08, 78.29 169.82, 32 168 M135 168 C111.17 166.72, 86.38 167.78, 32 168 M32 168 C10.61 166.3, 1.7 157.96, 0 136 M32 168 C10.76 169.65, 0.08 156.55, 0 136 M0 136 C2.12 102.26, 0.31 71.96, 0 32 M0 136 C0.56 107.29, -0.24 80.56, 0 32 M0 32 C-1.53 11.1, 10.09 -1.28, 32 0 M0 32 C-0.76 9.37, 11.39 0.62, 32 0" stroke="#1e1e1e" stroke-width="1" fill="none"/></g><g transform="translate(655.640625 204.7783203125) rotate(0 52.24609375 11.5)"><text x="52.24609375" y="0" font-family="Helvetica, Segoe UI Emoji" font-size="20px" fill="#1e1e1e" text-anchor="middle" style="white-space: pre;" direction="ltr" dominant-baseline="text-before-edge">bank server</text></g><g stroke-linecap="round"><g transform="translate(473.93359375000006 189.0549047643186) rotate(0 69.51757812499997 -1.686126604227129)"><path d="M0.57 0.6 C23.69 0.17, 115.7 -2.65, 138.95 -3.32 M-0.59 -0.14 C22.34 -0.28, 114.56 -1.43, 137.96 -1.75" stroke="#1e1e1e" stroke-width="1" fill="none"/></g><g transform="translate(473.93359375000006 189.0549047643186) rotate(0 69.51757812499997 -1.686126604227129)"><path d="M114.58 7.1 C123.07 4.03, 129.62 3.03, 137.96 -1.75 M114.58 7.1 C122.31 3.25, 128.83 0.63, 137.96 -1.75" stroke="#1e1e1e" stroke-width="1" fill="none"/></g><g transform="translate(473.93359375000006 189.0549047643186) rotate(0 69.51757812499997 -1.686126604227129)"><path d="M114.36 -10 C122.81 -7.62, 129.43 -3.18, 137.96 -1.75 M114.36 -10 C121.99 -8.74, 128.58 -6.25, 137.96 -1.75" stroke="#1e1e1e" stroke-width="1" fill="none"/></g></g><mask/><g mask="url(#mask-vJ-vGVIIkDgxUABwKkntW)" stroke-linecap="round"><g transform="translate(603.1132812500001 241.5153539371883) rotate(0 -61.94921875000006 1.2127193042664857)"><path d="M0.15 0.91 C-20.51 1.08, -104.1 2.04, -124.9 2.12 M-1.24 0.34 C-21.45 1.2, -102.56 3.19, -122.71 3.49" stroke="#1e1e1e" stroke-width="1" fill="none"/></g><g transform="translate(603.1132812500001 241.5153539371883) rotate(0 -61.94921875000006 1.2127193042664857)"><path d="M-99.4 -5.54 C-102.95 -5.19, -110.11 -2.77, -122.71 3.49 M-99.4 -5.54 C-104.16 -3.49, -108.58 -1.2, -122.71 3.49" stroke="#1e1e1e" stroke-width="1" fill="none"/></g><g transform="translate(603.1132812500001 241.5153539371883) rotate(0 -61.94921875000006 1.2127193042664857)"><path d="M-99.05 11.55 C-102.83 8.14, -110.07 6.79, -122.71 3.49 M-99.05 11.55 C-103.72 9.99, -108.21 8.66, -122.71 3.49" stroke="#1e1e1e" stroke-width="1" fill="none"/></g></g><mask id="mask-vJ-vGVIIkDgxUABwKkntW"><rect x="0" y="0" fill="#fff" width="827.0117187500002" height="343.94079254572125"/><rect x="522.2724609375001" y="231.22807324145475" fill="#000" width="37.783203125" height="23" opacity="1"/></mask><g transform="translate(522.2724609375 231.22807324145478) rotate(0 18.464394718781108 12.201042092535644)"><text x="18.8916015625" y="0" font-family="Helvetica, Segoe UI Emoji" font-size="20px" fill="#1e1e1e" text-anchor="middle" style="white-space: pre;" direction="ltr" dominant-baseline="text-before-edge">html</text></g></svg>