<svg version="1.1" xmlns="http://www.w3.org/2000/svg" viewBox="0 0 1423.5230830638966 213.73241403687535" width="1423.5230830638966" height="213.73241403687535" class="excalidraw-svg">
  <!-- svg-source:excalidraw -->
  
  <defs>
    <style class="style-fonts">
      @font-face {
        font-family: "Virgil";
        src: url("https://excalidraw.com/Virgil.woff2");
      }
      @font-face {
        font-family: "Cascadia";
        src: url("https://excalidraw.com/Cascadia.woff2");
      }
      @font-face {
        font-family: "Assistant";
        src: url("https://excalidraw.com/Assistant-Regular.woff2");
      }
    </style>
    
  </defs>
  <rect x="0" y="0" width="1423.5230830638966" height="213.73241403687535" fill="#ffffff"/><g stroke-linecap="round" transform="translate(10 15.025216353567458) rotate(0 326.0670868032122 94.35359884165395)"><path d="M32 0 C245.35 -0.43, 460.8 -0.57, 620.13 0 M32 0 C174.4 -1.11, 317.29 -1.91, 620.13 0 M620.13 0 C642.51 -1.69, 650.43 13.01, 652.13 32 M620.13 0 C643.52 0.33, 648.3 6.71, 652.13 32 M652.13 32 C650.54 63.5, 650.28 89.89, 652.13 156.71 M652.13 32 C653.75 72.1, 650 115.66, 652.13 156.71 M652.13 156.71 C654.14 176.99, 639.68 192.25, 620.13 188.71 M652.13 156.71 C648.96 175.44, 639.68 187.22, 620.13 188.71 M620.13 188.71 C450.72 192.71, 281.25 192.6, 32 188.71 M620.13 188.71 C391.02 192.43, 161.71 191.08, 32 188.71 M32 188.71 C10.72 186.1, -2.97 177.44, 0 156.71 M32 188.71 C10.26 191.92, -2.47 181.58, 0 156.71 M0 156.71 C3.83 112.99, -0.85 79.16, 0 32 M0 156.71 C1.91 117.79, 0.29 79.47, 0 32 M0 32 C-3.88 14.01, 11.6 1.83, 32 0 M0 32 C-3.97 10, 10.57 4.14, 32 0" stroke="#000000" stroke-width="1" fill="none"/></g><g stroke-linecap="round"><g transform="translate(14.798360337131726 81.61990634223133) rotate(0 321.13830327107615 0)"><path d="M1.82 0.83 C108.98 0.81, 536.95 -1.59, 643.86 -1.6 M-0.64 -1.18 C106.21 -0.74, 535.37 0.25, 642.48 1.16" stroke="#000000" stroke-width="1" fill="none"/></g></g><mask/><g transform="translate(53.9617160090952 35.98392048098896) rotate(0 88.0179214477539 17.858878422902734)"><text x="0" y="0" font-family="Helvetica, Segoe UI Emoji" font-size="31.058918996352592px" fill="#000000" text-anchor="start" style="white-space: pre;" direction="ltr" dominant-baseline="text-before-edge">attacker.com</text></g><g transform="translate(43.91483259041087 135.72455929487177) rotate(0 263.8204345703125 14.351458192469835)"><text x="0" y="0" font-family="Helvetica, Segoe UI Emoji" font-size="24.959057726034487px" fill="#1e1e1e" text-anchor="start" style="white-space: pre;" direction="ltr" dominant-baseline="text-before-edge">&lt;img src=“https://bank.com/img/usr.jpg”&gt; &lt;/img&gt;</text></g><g stroke-linecap="round"><g transform="translate(710.6112218564324 71.663763249596) rotate(0 209.84375000000009 0)"><path d="M-1.04 -1.17 C68.54 -0.93, 348.39 0.81, 418.66 1.14 M0.61 0.83 C70.46 0.8, 350.89 -0.06, 420.84 -0.38" stroke="#1e1e1e" stroke-width="1" fill="none"/></g><g transform="translate(710.6112218564324 71.663763249596) rotate(0 209.84375000000009 0)"><path d="M397.38 8.26 C404.71 3.35, 417.83 3.16, 420.84 -0.38 M397.38 8.26 C406.46 4.69, 415.3 2.32, 420.84 -0.38" stroke="#1e1e1e" stroke-width="1" fill="none"/></g><g transform="translate(710.6112218564324 71.663763249596) rotate(0 209.84375000000009 0)"><path d="M397.31 -8.84 C404.62 -7, 417.77 -0.44, 420.84 -0.38 M397.31 -8.84 C406.41 -6.11, 415.27 -2.18, 420.84 -0.38" stroke="#1e1e1e" stroke-width="1" fill="none"/></g></g><mask/><g transform="translate(733.9575760230989 25.654648666262602) rotate(0 156.99218749999997 11.500000000000014)"><text x="0" y="0" font-family="Helvetica, Segoe UI Emoji" font-size="20px" fill="#1e1e1e" text-anchor="start" style="white-space: pre;" direction="ltr" dominant-baseline="text-before-edge">get /img/usr.jpg  with bank's cookie </text></g><g stroke-linecap="round"><g transform="translate(1129.005728023104 143.91716746794867) rotate(0 -207.0192307692309 0)"><path d="M-0.78 -0.41 C-69.52 -0.59, -344.23 -0.42, -413.18 -0.31 M1.01 -1.67 C-67.75 -1.74, -344.27 0.5, -413.68 1.07" stroke="#1e1e1e" stroke-width="1" fill="none"/></g><g transform="translate(1129.005728023104 143.91716746794867) rotate(0 -207.0192307692309 0)"><path d="M-390.26 -7.67 C-396.52 -4.3, -401.98 -4.37, -413.68 1.07 M-390.26 -7.67 C-397.42 -4.34, -405.7 -1.29, -413.68 1.07" stroke="#1e1e1e" stroke-width="1" fill="none"/></g><g transform="translate(1129.005728023104 143.91716746794867) rotate(0 -207.0192307692309 0)"><path d="M-390.12 9.43 C-396.52 8.69, -402.01 4.51, -413.68 1.07 M-390.12 9.43 C-397.39 7.28, -405.72 4.85, -413.68 1.07" stroke="#1e1e1e" stroke-width="1" fill="none"/></g></g><mask/><g transform="translate(765.3699107154114 114.66836939102558) rotate(0 16.11328125 11.5)"><text x="0" y="0" font-family="Helvetica, Segoe UI Emoji" font-size="20px" fill="#1e1e1e" text-anchor="start" style="white-space: pre;" direction="ltr" dominant-baseline="text-before-edge">img</text></g><g stroke-linecap="round" transform="translate(1211.5230830638966 10) rotate(0 101 88.5)"><path d="M32 0 C65.34 2.38, 97.19 2.19, 170 0 M32 0 C77.69 1.86, 124.26 0.41, 170 0 M170 0 C192.07 -0.69, 201.9 12.19, 202 32 M170 0 C193.62 0.83, 203.38 12.19, 202 32 M202 32 C200.94 58.77, 200.55 85.97, 202 145 M202 32 C201.69 54.13, 202.16 78.55, 202 145 M202 145 C201.75 167.82, 189.8 175.23, 170 177 M202 145 C199.75 168.29, 192.15 178.47, 170 177 M170 177 C143.91 176.66, 112.3 176.42, 32 177 M170 177 C139.69 177.17, 109.41 176.96, 32 177 M32 177 C10.85 175.47, 0.5 165.98, 0 145 M32 177 C10.9 178.16, -1.87 167.63, 0 145 M0 145 C-2.91 110.87, 0.46 77.74, 0 32 M0 145 C0.55 98.97, 0.75 55.25, 0 32 M0 32 C-0.49 10.57, 11.42 0.88, 32 0 M0 32 C-0.65 9.91, 8.74 1.36, 32 0" stroke="#1e1e1e" stroke-width="1" fill="none"/></g><g transform="translate(1260.2769893138966 87) rotate(0 52.24609375 11.5)"><text x="52.24609375" y="0" font-family="Helvetica, Segoe UI Emoji" font-size="20px" fill="#1e1e1e" text-anchor="middle" style="white-space: pre;" direction="ltr" dominant-baseline="text-before-edge">bank server</text></g></svg>